<?xml version="1.0" standalone="no"?>
<!DOCTYPE svg PUBLIC "-//W3C//DTD SVG 20010904//EN"
 "http://www.w3.org/TR/2001/REC-SVG-20010904/DTD/svg10.dtd">
<svg version="1.0" xmlns="http://www.w3.org/2000/svg"
 width="1000.000000pt" height="1000.000000pt" viewBox="0 0 1000.000000 1000.000000"
 preserveAspectRatio="xMidYMid meet">
<metadata>
Created by potrace 1.14, written by Peter Selinger 2001-2017
</metadata>
<g transform="translate(0.000000,1000.000000) scale(0.100000,-0.100000)"
fill="#000000" stroke="none">
<path d="M3255 5332 c-30 -11 -65 -17 -88 -14 -48 6 -70 -12 -64 -52 3 -22 -4
-41 -24 -69 -69 -95 -79 -252 -24 -361 97 -191 357 -255 523 -128 63 48 78 67
115 142 53 109 42 244 -29 349 -18 27 -20 38 -12 56 16 36 -5 65 -47 65 -18 0
-36 -4 -40 -9 -3 -6 -26 -1 -53 11 -67 30 -190 35 -257 10z m125 -307 c41 0
92 4 113 8 34 7 38 6 47 -19 13 -33 -1 -89 -34 -129 -23 -29 -24 -29 -129 -29
-97 0 -108 2 -131 23 -39 36 -49 72 -36 121 l11 42 42 -9 c23 -4 76 -8 117 -8z"/>
<path d="M3267 4959 c-39 -22 -4 -79 35 -58 10 5 18 18 18 29 0 25 -30 41 -53
29z"/>
<path d="M3452 4958 c-18 -18 -15 -46 7 -57 14 -8 23 -6 36 9 17 19 17 21 0
40 -21 23 -27 24 -43 8z"/>
<path d="M4119 5335 c-106 -39 -168 -92 -216 -185 -25 -49 -28 -65 -28 -155 0
-95 2 -103 34 -163 104 -192 337 -248 518 -126 51 35 109 106 100 121 -3 5
-37 24 -76 43 l-71 34 -33 -31 c-45 -43 -69 -53 -124 -53 -100 0 -175 78 -175
180 1 102 70 170 171 170 64 0 96 -13 133 -52 l29 -32 75 37 c41 20 74 41 74
45 0 22 -65 96 -108 123 -89 56 -219 75 -303 44z"/>
<path d="M710 4995 l0 -345 85 0 85 0 0 111 0 110 37 -3 c37 -3 39 -6 97 -110
l60 -108 92 0 c51 0 95 3 97 8 3 4 -27 61 -66 126 -65 110 -69 121 -52 130 44
26 84 69 100 108 35 89 13 200 -51 260 -53 49 -98 58 -300 58 l-184 0 0 -345z
m350 167 c14 -11 23 -29 23 -47 0 -48 -33 -65 -124 -65 l-79 0 0 65 0 65 79 0
c61 0 84 -4 101 -18z"/>
<path d="M1729 5329 c-8 -5 -31 -9 -52 -9 -50 0 -148 -52 -182 -96 -14 -19
-35 -59 -46 -90 -10 -31 -23 -62 -29 -69 -5 -6 -8 -14 -6 -16 2 -2 6 -39 10
-81 5 -64 13 -89 41 -136 38 -66 71 -94 163 -140 53 -27 74 -32 140 -33 100
-2 150 12 209 60 72 58 99 91 117 145 19 59 14 71 -9 22 -10 -20 -22 -39 -28
-43 -15 -9 1 46 18 64 18 18 29 75 22 119 -11 65 -104 224 -131 224 -4 0 -12
5 -19 10 -32 27 -90 60 -115 66 -52 11 -89 12 -103 3z m136 -66 c19 -9 35 -21
35 -25 0 -5 -4 -6 -10 -3 -25 16 -4 -14 33 -45 25 -22 38 -28 34 -17 -10 28 9
20 22 -10 9 -18 9 -28 1 -33 -12 -8 -3 -40 12 -40 5 0 6 6 2 13 -5 9 -4 9 6 0
27 -25 27 -205 0 -188 -4 3 -10 -2 -13 -10 -4 -9 -1 -12 8 -8 12 4 13 0 4 -26
-13 -36 -30 -42 -22 -8 4 18 3 19 -6 7 -6 -8 -11 -24 -11 -36 0 -22 -30 -53
-70 -74 -26 -14 -117 -16 -205 -5 -64 9 -158 62 -151 87 2 10 0 21 -6 24 -27
17 -49 96 -46 165 1 39 6 73 10 75 5 3 14 20 22 37 17 42 72 95 121 118 53 25
180 26 230 2z"/>
<path d="M1990 5026 c0 -25 5 -48 10 -51 6 -4 10 11 10 39 0 25 -4 48 -10 51
-6 4 -10 -11 -10 -39z"/>
<path d="M2300 4995 l0 -345 203 0 c111 0 219 5 240 11 110 30 162 161 108
268 -12 23 -35 50 -51 60 l-30 18 31 22 c79 59 79 197 0 264 -48 40 -90 47
-303 47 l-198 0 0 -345z m361 175 c11 -6 19 -21 19 -35 0 -35 -27 -45 -119
-45 l-81 0 0 45 0 45 81 0 c44 0 89 -5 100 -10z m17 -272 c19 -19 15 -66 -7
-78 -11 -5 -58 -10 -105 -10 l-86 0 0 50 0 50 93 0 c59 0 97 -4 105 -12z"/>
<path d="M4675 5328 c-3 -7 -4 -162 -3 -343 l3 -330 88 -3 87 -3 0 111 0 110
34 0 c33 0 36 -4 93 -107 l60 -108 96 -3 c74 -2 97 0 97 10 -1 7 -32 65 -70
128 -60 99 -67 116 -54 125 63 39 80 55 97 89 58 111 18 253 -86 309 -39 20
-58 22 -240 25 -157 3 -198 1 -202 -10z m349 -169 c15 -12 26 -30 26 -44 0
-43 -43 -65 -126 -65 l-74 0 0 65 0 65 74 0 c59 0 78 -4 100 -21z"/>
<path d="M5327 5332 c-3 -4 51 -92 119 -196 l124 -189 0 -149 0 -149 88 3 87
3 3 148 3 147 119 184 c66 101 120 189 120 195 0 7 -33 11 -94 11 l-95 0 -67
-110 c-37 -60 -70 -110 -75 -110 -4 0 -38 50 -75 110 l-69 110 -92 0 c-50 0
-94 -3 -96 -8z"/>
<path d="M6140 4995 l0 -345 85 0 85 0 0 119 0 119 113 4 c120 4 167 20 214
70 74 79 70 231 -9 310 -57 57 -109 68 -315 68 l-173 0 0 -345z m356 160 c8
-10 14 -28 14 -40 0 -46 -23 -60 -109 -63 l-81 -4 0 67 0 67 81 -4 c66 -3 83
-7 95 -23z"/>
<path d="M6834 5327 c-3 -8 -4 -43 -2 -78 l3 -64 92 -3 93 -3 2 -262 3 -262
88 -3 87 -3 0 265 0 265 93 3 92 3 0 75 0 75 -273 3 c-223 2 -273 0 -278 -11z"/>
<path d="M7530 4995 l0 -345 85 0 85 0 0 345 0 345 -85 0 -85 0 0 -345z"/>
<path d="M7845 5327 c-3 -6 -4 -161 -3 -342 l3 -330 87 -3 88 -3 2 183 3 182
134 -182 133 -182 84 0 84 0 0 35 c0 30 -33 80 -227 345 l-228 309 -78 0 c-53
1 -79 -3 -82 -12z"/>
<path d="M8607 5333 c-2 -5 55 -160 127 -345 l131 -338 95 0 95 0 131 340 c72
187 129 342 126 345 -3 3 -47 5 -97 5 l-92 0 -79 -220 c-43 -121 -81 -220 -84
-220 -3 0 -41 99 -85 220 l-79 220 -92 0 c-51 0 -95 -3 -97 -7z"/>
<path d="M8300 5200 l0 -130 75 0 75 0 0 130 0 130 -75 0 -75 0 0 -130z"/>
</g>
</svg>
